<?xml version="1.0" encoding="iso-8859-1"?>
<!-- Generator: Adobe Illustrator 16.0.0, SVG Export Plug-In . SVG Version: 6.00 Build 0)  -->
<!DOCTYPE svg PUBLIC "-//W3C//DTD SVG 1.1//EN" "http://www.w3.org/Graphics/SVG/1.1/DTD/svg11.dtd">
<svg version="1.1" id="Capa_1" xmlns="http://www.w3.org/2000/svg" xmlns:xlink="http://www.w3.org/1999/xlink" x="0px" y="0px"
	 width="51.035px" height="51.036px" color="white" viewBox="0 0 51.035 51.036" style="enable-background:new 0 0 51.035 51.036;"
	 xml:space="preserve">
<g>
	<g>
		<path d="M32.391,42.792c0.021,0.006,0.563-0.055,1.084-0.247c0.521-0.187,1.02-0.481,0.885-0.928
			c-0.127-0.433-0.598-0.494-1.021-0.546l-0.03,0.322c0.325,0.032,0.607,0.137,0.724,0.371c0.212,0.444-1.488,0.674-1.499,0.607
			c0.002-0.008,0.042-0.155,0.107-0.396c0.062-0.242,0.131-0.574,0.17-0.949c0.082-0.754,0.017-1.664-0.369-2.41
			c-0.361-0.696-0.961-1.133-1.5-1.364c-0.272-0.117-0.53-0.171-0.762-0.188c-0.24-0.03-0.447-0.008-0.604,0.071
			c-0.489,0.261-0.665,0.863-0.451,1.458c0.161,0.486,0.545,0.751,0.971,0.633c0.956-0.231,0.315-1.287,0.207-1.397
			c-0.085-0.029,1.244,0.026,1.07,0.864c-0.232,0.604-0.604,1.473-0.456,2.416c0.069,0.598,0.372,1.097,0.825,1.343
			c0.053,0.047,0.142,0.081,0.146,0.192c0.021,0.025-0.646,1.019-0.742,1c-0.096,0.004-0.141-0.146-0.185-0.293
			c-0.01-0.343-0.29-1.051-0.571-1.406c-0.339-0.375-1.637-0.654-1.647-0.62c-0.24,0.212,0.296,0.657,0.25,0.733
			c-0.019,0.069-0.229,0.131-0.886,0.092c-0.477,0.004-1.151,0.557-0.998,0.855c0.063,0.123,1.195-0.016,1.242,0.04
			c0.049,0.073-0.139,0.488-0.1,0.513c0.021,0.027,0.327,0.008,0.673-0.01c0.345-0.025,0.724-0.088,0.909-0.05
			c0.407,0.071,0.596,0.185,0.654,0.408c0.066,0.235-0.307,0.538-0.829,0.763c-0.372,0.182-1.089,0.25-1.382,0.211
			c0,0-0.596-0.124-1.08-0.121c-0.485-0.019-0.893,0.135-0.529,0.824c0.749,1.378-1.102,0.124-1.23,0.684
			c-0.164,0.562,0.71,0.98,1.897,0.547c1.167-0.504-0.013,0.75,0.454,1.002c0.505,0.252,1.143-0.17,1.602-0.649
			c0.23-0.233,0.42-0.497,0.545-0.71c0.129-0.207,0.199-0.35,0.199-0.35c0.105-0.391,0.195-0.713,0.342-1.021
			c0.176-0.439,0.392-0.718,0.616-0.777c0.312-0.09,0.544,0.125,0.628,0.393c0.057,0.168-0.006,0.447-0.087,0.689
			c-0.079,0.245-0.184,0.428-0.179,0.447c-0.342,0.34,0.579-0.031,0.629-0.007c0.077,0.089,0.062,0.19,0.012,0.308
			c-0.087,0.145-0.613,0.557-0.722,0.739c-0.125,0.207-0.108,0.456,0.196,0.554c0.313,0.047,0.628-0.16,0.729-0.353
			c0.09-0.163,0.221-0.616,0.262-0.828c0.027-0.188,0.135-0.26,0.217-0.29c0.154-0.057,0.678,0.355,0.759,0.381
			c0.493,0.164,0.813-1.328,0.562-1.843c-0.168-0.372-0.717-0.532-1.222-0.669c-0.254-0.068-0.494-0.117-0.671-0.151
			c-0.178-0.032-0.292-0.052-0.294-0.059C31.872,43.6,32.311,42.821,32.391,42.792z M31.361,40.688
			c0.014-0.987,0.141-1.44,0.322-1.615c0.174-0.178,0.387-0.103,0.438-0.082c0.063-0.014,0.526,1.912-0.082,3.158
			C31.971,42.172,31.354,41.28,31.361,40.688z"/>
		<path d="M47.514,30.229c-0.082-0.154-0.422-0.492-0.584-0.633c-0.152-0.119-0.162-0.251-0.148-0.332
			c0.027-0.168,0.64-0.414,0.699-0.474c0.365-0.349-0.713-1.362-1.304-1.401c-0.391-0.037-0.831,0.354-1.206,0.726
			c-0.185,0.186-0.343,0.37-0.457,0.508c-0.115,0.138-0.187,0.229-0.193,0.228c-0.036,0.021-0.504-0.75-0.492-0.832
			c0.003-0.009,0.059-0.14,0.14-0.33c0.089-0.193,0.157-0.457,0.199-0.729c0.087-0.544,0.063-1.124-0.365-1.23
			c-0.432-0.104-0.755,0.27-0.991,0.613l0.269,0.188c0.185-0.266,0.413-0.461,0.673-0.443c0.486,0.037-0.109,1.627-0.216,1.602
			c-0.009-0.002-0.104-0.117-0.272-0.289c-0.172-0.174-0.437-0.4-0.746-0.623c-0.621-0.445-1.451-0.841-2.291-0.881
			c-0.783-0.035-1.451,0.268-1.91,0.622c-0.432,0.364-0.791,0.773-0.782,1.129c0.001,0.557,0.385,1,1.032,1.113
			c0.49,0.102,0.927-0.097,1.043-0.521c0.256-0.95-0.976-0.92-1.125-0.883c-0.049,0.021,0.129-0.232,0.396-0.434
			c0.245-0.201,0.579-0.361,0.905-0.062c0.366,0.498,0.974,1.259,1.864,1.601c0.554,0.237,1.135,0.224,1.567-0.046
			c0.067-0.023,0.14-0.086,0.238-0.033c0.026-0.008,0.594,1.073,0.501,1.141c-0.053,0.082-0.203,0.047-0.354,0.016
			c-0.291-0.163-1.057-0.275-1.504-0.208c-0.244,0.047-0.586,0.332-0.863,0.595c-0.271,0.268-0.487,0.514-0.487,0.53
			c0.043,0.304,0.729,0.069,0.769,0.147c0.045,0.049-0.029,0.254-0.371,0.814c-0.114,0.211-0.123,0.529-0.082,0.797
			c0.033,0.262,0.141,0.48,0.317,0.486c0.164,0.019,0.599-1.035,0.663-1.051c0.088-0.008,0.357,0.362,0.398,0.342
			c0.062-0.014,0.537-1.098,0.74-1.402c0.258-0.318,0.446-0.423,0.67-0.365c0.238,0.063,0.322,0.535,0.265,1.103
			c-0.075,0.401-0.326,1.069-0.513,1.305c0.045,0.044-1.735,1.688-0.196,1.744c1.551,0.028-0.407,1.04-0.034,1.407
			c0.203,0.203,0.508,0.183,0.805-0.049c0.273-0.244,0.524-0.707,0.619-1.33c0.188-1.246,0.631,0.383,1.102,0.107
			c0.502-0.298,0.418-1.076,0.231-1.713c-0.097-0.32-0.226-0.613-0.332-0.825c-0.104-0.21-0.2-0.345-0.2-0.345
			c-0.289-0.286-0.526-0.521-0.724-0.809c-0.3-0.367-0.437-0.697-0.38-0.922c0.083-0.314,0.408-0.4,0.674-0.348
			c0.355,0.066,0.805,0.78,0.834,0.793c0.12,0.467,0.264-0.518,0.327-0.545c0.114-0.021,0.2,0.044,0.271,0.145
			c0.06,0.14,0.16,0.804,0.269,0.994c0.121,0.209,0.345,0.317,0.578,0.104C47.643,30.785,47.609,30.411,47.514,30.229z
			 M41.495,27.86c-1.724-0.978-1.187-1.411-1.093-1.504c0.017-0.027,0.492,0.095,1.07,0.369c0.59,0.273,1.258,0.709,1.625,1.274
			C43.084,28.074,42.007,28.167,41.495,27.86z"/>
		<path d="M42.544,36.223c-0.733-0.425-1.666-0.488-2.435-0.531c-0.387-0.021-0.723-0.022-0.965-0.021
			c-0.24,0.001-0.393,0.003-0.393,0.003c-0.023-0.019,0.078-0.399,0.23-0.733c0.156-0.332,0.314-0.658,0.533-0.527
			c0.226,0.134,0.31,0.41,0.308,0.736l0.323,0.006c0.008-0.43-0.063-0.893-0.488-1.037c-0.428-0.15-0.701,0.253-0.936,0.666
			c-0.121,0.206-0.217,0.424-0.285,0.595c-0.064,0.173-0.108,0.291-0.111,0.299c-0.045,0.075-0.862,0.158-0.873,0.104
			c-0.006-0.005,0.008-0.104,0.021-0.255c0.006-0.157,0.004-0.373-0.019-0.596c-0.044-0.451-0.183-0.935-0.511-1.166
			c-0.475-0.313-1.756-0.632-1.637-0.279c0.021,0.062,0.338,0.588,0.26,0.66c-0.035,0.037-0.113,0.076-0.276,0.002
			c-0.185-0.07-0.575-0.217-0.713-0.248c-0.162-0.028-0.378,0.027-0.394,0.231c0.025,0.228,0.213,0.386,0.402,0.427
			c0.167,0.043,0.609-0.056,0.732-0.054c0.104,0.022,0.193,0.063,0.254,0.156c0.027,0.061-0.48,0.459-0.127,0.416
			c0.019,0.024,0.742,0.144,1.012,0.376c0.207,0.184,0.344,0.468,0.169,0.66c-0.125,0.13-0.42,0.164-0.846,0.021
			c-0.304-0.081-0.589-0.218-0.921-0.394c0,0-0.529-0.173-1.025-0.265c-0.492-0.078-1.003-0.15-1.021,0.272
			c-0.041,0.414,1.271,0.812,0.436,0.976c-0.832,0.137-1.079,0.758-0.717,1.204c0.382,0.417,0.732-1.352,1.102,0.071
			c0.17,0.716,0.535,0.679,0.824,0.393c0.295-0.274,0.525-0.72,0.525-0.72c0.14-0.192,0.537-0.58,0.815-0.745
			c0.388-0.224,0.792-0.32,0.962-0.156c0.166,0.164,0.191,0.365,0.053,0.713c-0.123,0.313-0.89,1.082-0.896,1.127
			c-0.009,0.045,0.421,0.203,0.443,0.281c0.016,0.067-0.863,0.764-0.834,0.896c0.072,0.352,0.959,0.246,1.338-0.117
			c0.449-0.543,0.607-0.708,0.68-0.684c0.096-0.004,0.102,0.746,0.434,0.646c0.061-0.003,0.67-1.355,0.447-1.833
			c-0.183-0.415-0.721-0.97-1.014-1.129c-0.113-0.104-0.227-0.211-0.195-0.29c0-0.07,1.102-0.219,1.125-0.213
			c0.104,0.041,0.114,0.134,0.139,0.199c0.084,0.476,0.418,0.961,0.957,1.236c0.834,0.491,1.922,0.275,2.66-0.021
			c1.026-0.238,0.408,1.645,0.373,1.531c-0.06-0.189-0.801-1.098-1.627-0.01c-0.379,0.489-0.425,1.039-0.091,1.428
			c0.39,0.508,1.192,0.466,1.925-0.264c0.469-0.445,0.781-1.304,0.825-2.088C43.543,37.389,43.214,36.61,42.544,36.223z
			 M40.038,37.272c-0.581-0.15-1.228-1.035-1.19-1.082c1.295-0.185,3.236,0.371,3.209,0.445
			C42.093,36.748,42.037,37.743,40.038,37.272z"/>
		<path d="M24.053,41.729c-0.479,0.054-0.951,0.102-0.97,0.11c-0.086-0.013-0.57-0.68-0.528-0.704
			c0.025-0.035,1.434-0.604,1.48-1.441c0.03-0.549-0.338-1.84-0.581-1.57c-0.042,0.045-0.334,0.574-0.438,0.559
			c-0.052-0.008-0.126-0.05-0.145-0.225c-0.031-0.191-0.104-0.587-0.146-0.73c-0.055-0.16-0.209-0.328-0.39-0.248
			c-0.181,0.129-0.223,0.373-0.166,0.562c0.045,0.17,0.347,0.521,0.406,0.634c0.032,0.105,0.042,0.198-0.007,0.302
			c-0.039,0.051-0.629-0.218-0.417,0.08c-0.012,0.027,0.244,0.731,0.18,1.082c-0.055,0.271-0.229,0.527-0.481,0.463
			c-0.175-0.045-0.345-0.312-0.442-0.734c-0.084-0.291-0.112-0.602-0.129-0.971c0,0-0.032-0.131-0.081-0.328
			c-0.048-0.2-0.116-0.461-0.199-0.707c-0.165-0.504-0.39-0.894-0.752-0.73c-0.372,0.159-0.077,1.533-0.619,0.854
			c-0.269-0.338-0.568-0.455-0.832-0.437c-0.252,0.002-0.478,0.158-0.572,0.427c-0.191,0.58,1.558-0.09,0.497,0.975
			c-1.09,1.04,0.954,1.07,0.955,1.012c0.247-0.008,0.768,0.184,1.047,0.352c0.394,0.196,0.686,0.479,0.626,0.719
			c-0.057,0.224-0.216,0.342-0.592,0.421c-0.351,0.108-1.363-0.277-1.421-0.22c-0.043,0.017,0.04,0.457-0.017,0.52
			c-0.055,0.057-1.112-0.316-1.201-0.255c-0.267,0.239,0.256,0.983,0.779,1.085c0.695,0.124,0.907,0.2,0.923,0.271
			c0.053,0.084-0.588,0.446-0.339,0.695c0.024,0.082,1.529-0.16,1.815-0.544c0.265-0.36,0.472-1.103,0.463-1.438
			c0.033-0.15,0.067-0.303,0.15-0.312c0.056-0.005,0.751,0.799,0.756,0.836c0.017,0.112-0.057,0.162-0.102,0.221
			c-0.372,0.33-0.625,0.869-0.589,1.467c0.001,0.934,0.732,1.809,1.36,2.3c0.35,0.356,0.064,0.685-0.322,0.871
			c-0.383,0.178-0.859,0.241-0.81,0.202c0.13-0.123,0.55-1.281-0.818-1.392c-0.616-0.069-1.106,0.13-1.275,0.619
			c-0.239,0.571,0.188,1.32,1.198,1.537c0.63,0.133,1.518,0.079,2.219-0.339c0.707-0.398,1.208-1.025,1.207-1.812
			c-0.003-0.842-0.415-1.715-0.766-2.379c-0.377-0.654-0.663-1.154-0.67-1.168c0.004-0.029,0.382-0.109,0.75-0.184
			c0.368-0.059,0.728-0.049,0.726,0.199c-0.002,0.263-0.199,0.468-0.481,0.623l0.157,0.287c0.375-0.199,0.737-0.482,0.649-0.926
			C25.015,41.776,24.531,41.698,24.053,41.729z M24.133,45.532c-0.075,0.07-0.968,0.607-1.565-1.416
			c-0.16-0.586,0.272-1.58,0.333-1.571C23.706,43.634,24.215,45.481,24.133,45.532z"/>
		<path d="M5.719,22.873c0.183-0.186,0.342-0.37,0.457-0.507c0.115-0.138,0.186-0.228,0.193-0.227
			c0.036-0.024,0.504,0.746,0.492,0.831c-0.003,0.009-0.059,0.14-0.141,0.331c-0.086,0.193-0.161,0.455-0.201,0.728
			c-0.087,0.545-0.064,1.124,0.365,1.23c0.433,0.104,0.755-0.269,0.991-0.611L7.607,24.46c-0.185,0.265-0.412,0.456-0.673,0.439
			c-0.488-0.038,0.112-1.626,0.218-1.599c0,0,0.104,0.118,0.272,0.289c0.168,0.173,0.436,0.401,0.743,0.622
			c0.623,0.45,1.453,0.849,2.293,0.889c0.784,0.037,1.452-0.266,1.911-0.619c0.43-0.363,0.794-0.771,0.783-1.128
			c0.003-0.557-0.385-1-1.029-1.117c-0.491-0.101-0.925,0.099-1.047,0.522c-0.254,0.95,0.977,0.921,1.125,0.883
			c0.05-0.019-0.127,0.233-0.396,0.434c-0.25,0.2-0.58,0.359-0.907,0.06c-0.362-0.497-0.973-1.258-1.861-1.603
			c-0.554-0.236-1.134-0.225-1.568,0.047c-0.066,0.022-0.139,0.082-0.238,0.03c-0.027,0.007-0.593-1.072-0.498-1.141
			c0.052-0.083,0.203-0.048,0.352-0.012c0.293,0.16,1.058,0.273,1.506,0.207c0.243-0.047,0.586-0.332,0.861-0.594
			c0.27-0.267,0.49-0.511,0.489-0.527c-0.043-0.306-0.729-0.074-0.767-0.152c-0.046-0.048,0.03-0.255,0.369-0.812
			c0.203-0.428,0.109-1.267-0.232-1.285c-0.164-0.019-0.603,1.032-0.666,1.05c-0.086,0.007-0.358-0.364-0.397-0.342
			C8.19,19.015,7.708,20.1,7.508,20.4c-0.259,0.318-0.448,0.427-0.671,0.366c-0.239-0.061-0.321-0.537-0.263-1.104
			c0.078-0.396,0.327-1.069,0.514-1.301c-0.046-0.045,1.742-1.689,0.201-1.747c-1.552-0.03,0.409-1.038,0.034-1.404
			c-0.201-0.203-0.507-0.186-0.803,0.046c-0.276,0.24-0.525,0.706-0.621,1.328c-0.188,1.247-0.631-0.381-1.101-0.109
			c-0.506,0.297-0.419,1.077-0.234,1.713c0.097,0.322,0.226,0.614,0.332,0.826c0.102,0.209,0.198,0.345,0.198,0.345
			c0.289,0.286,0.526,0.525,0.723,0.808c0.299,0.373,0.436,0.699,0.379,0.926c-0.083,0.313-0.406,0.402-0.676,0.344
			c-0.35-0.066-0.803-0.779-0.831-0.793c-0.121-0.466-0.262,0.517-0.33,0.544c-0.116,0.021-0.198-0.04-0.268-0.143
			c-0.059-0.143-0.159-0.806-0.269-0.993c-0.12-0.212-0.345-0.322-0.577-0.104c-0.192,0.249-0.162,0.628-0.064,0.806
			c0.081,0.157,0.416,0.496,0.581,0.638c0.152,0.118,0.161,0.246,0.147,0.332c-0.027,0.162-0.639,0.41-0.7,0.469
			c-0.362,0.349,0.711,1.363,1.302,1.403C4.9,23.631,5.345,23.243,5.719,22.873z M9.194,23.128c1.723,0.983,1.183,1.414,1.09,1.507
			c-0.017,0.027-0.492-0.095-1.07-0.37c-0.59-0.274-1.254-0.712-1.622-1.277C7.604,22.915,8.681,22.824,9.194,23.128z"/>
		<path d="M17.396,35.007c-0.437-0.331-1.075-0.155-1.48,0.328c-0.338,0.381-0.355,0.823-0.062,1.16
			c0.672,0.723,1.292-0.394,1.322-0.525c0.001-0.116,0.582,1.12-0.217,1.366c-0.601,0.05-1.612,0.255-2.326,0.82
			c-0.477,0.351-0.766,0.875-0.754,1.387c-0.011,0.07,0.006,0.161-0.089,0.223c-0.029,0.051-1.187-0.07-1.22-0.158
			c-0.047-0.084,0.059-0.196,0.162-0.312c0.29-0.174,0.769-0.778,0.931-1.194c0.083-0.236-0.016-0.65-0.094-1.033
			c-0.078-0.385-0.176-0.701-0.198-0.703c-0.293-0.106-0.421,0.593-0.509,0.588c-0.066,0.018-0.213-0.145-0.548-0.704
			c-0.23-0.416-1.024-0.742-1.212-0.45c-0.069,0.112,0.576,1.055,0.563,1.11c-0.039,0.082-0.495,0.133-0.492,0.175
			c-0.038,0.076,0.73,0.968,0.851,1.334c0.126,0.402,0.14,0.6-0.025,0.768c-0.18,0.183-0.629,0.018-1.063-0.341
			c-0.309-0.265-0.807-0.776-0.89-1.077c0,0-0.169-0.594-0.42-1.008c-0.261-0.406-0.582-0.689-1.001-0.025
			c-0.82,1.343-0.644-0.903-1.185-0.742c-0.549,0.129-0.537,1.144,0.479,1.923c1.019,0.759-0.648,0.356-0.634,0.894
			c0.035,0.562,0.674,0.938,1.354,1.062c0.666,0.144,1.29,0.112,1.29,0.112c0.386-0.103,0.704-0.186,1.041-0.205
			c0.466-0.073,0.832-0.039,1,0.115c0.239,0.224,0.156,0.543-0.028,0.75c-0.231,0.27-1.089,0.316-1.114,0.336
			c-0.472-0.119,0.328,0.474,0.318,0.543c-0.042,0.11-0.136,0.149-0.26,0.162c-0.153-0.015-0.789-0.246-1.012-0.244
			c-0.244,0.006-0.452,0.146-0.379,0.449c0.127,0.284,0.473,0.438,0.682,0.439c0.182,0,0.632-0.111,0.833-0.18
			c0.177-0.068,0.29-0.006,0.352,0.05c0.12,0.12,0.039,0.756,0.059,0.84c0.125,0.479,1.556,0.037,1.875-0.437
			c0.447-0.672-0.393-2.293-0.339-2.328c-0.012-0.029,0.902-0.062,0.971-0.016c0.006,0.008,0.094,0.118,0.222,0.279
			c0.132,0.16,0.315,0.365,0.52,0.554c0.422,0.354,0.954,0.601,1.259,0.283c0.309-0.323,0.141-0.782-0.043-1.147l-0.301,0.14
			c0.141,0.286,0.199,0.575,0.054,0.794c-0.133,0.201-0.488-0.012-0.778-0.305c-0.282-0.309-0.513-0.666-0.494-0.69
			c0.008-0.002,0.153-0.038,0.392-0.099c0.235-0.062,0.554-0.16,0.894-0.308c0.697-0.312,1.467-0.85,1.92-1.556
			c0.427-0.665,0.485-1.371,0.415-1.953C17.924,35.641,17.693,35.196,17.396,35.007z M14.302,39.636
			c-0.059-0.046,0.395-1.018,0.921-1.313c1.745-1.045,1.796-0.286,1.848-0.187C17.099,38.203,15.688,39.538,14.302,39.636z"/>
		<path d="M9.148,33.2c0.204-0.321,0.366-0.61,0.479-0.817c0.113-0.207,0.177-0.334,0.187-0.338c0.059-0.01,1.156,1.054,0.721,1.289
			c-0.228,0.129-0.501,0.06-0.771-0.11L9.59,33.502c0.342,0.234,0.787,0.398,1.127,0.104c0.673-0.566-0.699-1.866-0.679-1.938
			c-0.03-0.082,0.318-0.836,0.359-0.812c0.007-0.004,0.089,0.058,0.218,0.143c0.129,0.085,0.305,0.195,0.502,0.291
			c0.385,0.197,0.917,0.299,1.271,0.134c0.505-0.252,1.396-1.19,1.064-1.276c-0.059-0.016-0.659-0.008-0.696-0.106
			c-0.018-0.048-0.016-0.134,0.128-0.237c0.151-0.121,0.465-0.384,0.556-0.486c0.092-0.121,0.178-0.344,0.018-0.461
			c-0.199-0.094-0.432-0.01-0.57,0.136c-0.126,0.124-0.295,0.563-0.34,0.664c-0.069,0.079-0.147,0.133-0.259,0.142
			c-0.087-0.001-0.142-0.646-0.295-0.316c-0.041,0.008-0.506,0.572-0.833,0.688c-0.257,0.085-0.596,0.07-0.659-0.184
			c-0.044-0.176,0.106-0.455,0.429-0.75c0.214-0.219,0.471-0.396,0.785-0.594c0,0,0.382-0.363,0.748-0.755
			c0.352-0.393,0.618-0.788,0.26-1.018c-0.341-0.243-1.335,0.69-1.052-0.114c0.338-0.793-0.144-1.316-0.694-1.228
			c-0.548,0.122,0.85,1.313-0.584,0.917c-0.717-0.213-0.834,0.119-0.773,0.517c0.02,0.199,0.139,0.399,0.217,0.556
			c0.084,0.154,0.156,0.258,0.156,0.258c0.137,0.211,0.185,0.767,0.22,1.084c0.019,0.44-0.087,0.838-0.324,0.903
			c-0.223,0.062-0.402-0.02-0.652-0.309C8.979,29.2,8.777,28.137,8.72,28.11c-0.035-0.028-0.38,0.263-0.461,0.244
			c-0.061-0.021-0.274-1.125-0.385-1.168c-0.351-0.112-0.688,0.705-0.543,1.213c0.221,0.668,0.267,0.889,0.222,0.937
			c-0.046,0.086-0.702-0.284-0.78,0.052c-0.021,0.053,0.89,1.252,1.369,1.309c0.441,0.052,1.194-0.139,1.478-0.312
			c0.148-0.046,0.293-0.091,0.351-0.024c0.063,0.035-0.322,1.05-0.347,1.068c-0.09,0.071-0.169,0.031-0.24,0.021
			c-0.467-0.161-1.057-0.114-1.562,0.214c-0.798,0.46-1.247,1.55-1.316,2.319c-0.145,0.486-0.554,0.393-0.921,0.154
			c-0.377-0.229-0.637-0.626-0.587-0.599c0.17,0.053,1.381-0.156,0.815-1.407c-0.271-0.562-0.672-0.892-1.182-0.796
			c-0.624,0.08-1.048,0.813-0.733,1.801c0.173,0.626,0.689,1.354,1.397,1.763c0.689,0.422,1.476,0.55,2.158,0.156
			C8.18,34.635,8.739,33.838,9.148,33.2z M7.009,33.94c-0.061-0.317,0.058-0.84,0.799-1.592c0.433-0.433,1.507-0.545,1.528-0.488
			c-0.517,1.226-1.899,2.604-1.977,2.554C7.305,34.387,7.068,34.264,7.009,33.94z"/>
		<path d="M8.105,14.848c0.733,0.422,1.673,0.486,2.434,0.522c0.387,0.02,0.725,0.021,0.966,0.019
			c0.242-0.002,0.394-0.003,0.394-0.003c0.024,0.018-0.078,0.399-0.23,0.732c-0.147,0.338-0.311,0.66-0.529,0.531
			c-0.226-0.132-0.31-0.408-0.309-0.734l-0.323-0.006c-0.008,0.43,0.064,0.891,0.49,1.035c0.427,0.148,0.707-0.251,0.932-0.67
			c0.12-0.206,0.216-0.424,0.284-0.595c0.065-0.173,0.109-0.29,0.112-0.298c0.048-0.073,0.858-0.164,0.869-0.107
			c0,0.001-0.05,0.4,0.002,0.853c0.044,0.449,0.185,0.931,0.513,1.161c0.475,0.313,1.759,0.627,1.639,0.275
			c-0.017-0.058-0.343-0.589-0.265-0.66c0.036-0.039,0.114-0.077,0.277-0.003c0.185,0.071,0.576,0.217,0.714,0.246
			c0.163,0.028,0.38-0.027,0.395-0.23c-0.026-0.228-0.215-0.384-0.404-0.426c-0.167-0.043-0.611,0.056-0.734,0.054
			c-0.105-0.022-0.192-0.063-0.255-0.155c-0.026-0.061,0.481-0.458,0.126-0.415c-0.019-0.024-0.744-0.143-1.014-0.374
			c-0.208-0.183-0.346-0.466-0.171-0.659c0.125-0.132,0.425-0.16,0.845-0.027c0.303,0.08,0.59,0.216,0.923,0.393
			c0,0,0.531,0.171,1.027,0.262c0.488,0.07,1.003,0.147,1.021-0.276c0.039-0.414-1.275-0.809-0.438-0.973
			c0.828-0.146,1.078-0.761,0.713-1.209c-0.385-0.418-0.727,1.355-1.104-0.07c-0.174-0.717-0.533-0.672-0.823-0.386
			c-0.295,0.274-0.525,0.719-0.525,0.719c-0.139,0.19-0.531,0.588-0.813,0.749c-0.39,0.221-0.787,0.325-0.957,0.161
			c-0.164-0.16-0.199-0.369-0.061-0.716c0.122-0.313,0.893-1.076,0.893-1.13c0.008-0.046-0.421-0.201-0.443-0.276
			c-0.021-0.073,0.862-0.765,0.832-0.899c-0.073-0.35-0.962-0.244-1.34,0.119c-0.443,0.552-0.605,0.71-0.676,0.687
			c-0.097,0.007-0.104-0.744-0.435-0.644c-0.024,0.001-0.197,0.345-0.333,0.738c-0.143,0.388-0.196,0.873-0.109,1.097
			c0.185,0.414,0.724,0.966,1.017,1.126c0.114,0.104,0.228,0.208,0.196,0.288c-0.004,0.04-0.274,0.09-0.553,0.136
			c-0.141,0.021-0.281,0.042-0.388,0.059c-0.107,0.015-0.175,0.03-0.182,0.023c-0.104-0.041-0.112-0.131-0.141-0.199
			c-0.09-0.479-0.42-0.96-0.962-1.236c-0.836-0.489-1.917-0.265-2.659,0.031c-1.028,0.24-0.412-1.641-0.376-1.528
			c0.058,0.188,0.808,1.097,1.625,0.002c0.378-0.49,0.423-1.037,0.088-1.426C9.492,10.027,8.689,10.07,7.957,10.8
			c-0.461,0.453-0.778,1.306-0.818,2.09C7.108,13.688,7.432,14.459,8.105,14.848z M10.61,13.79c0.581,0.152,1.231,1.029,1.194,1.079
			c-1.302,0.183-3.237-0.36-3.21-0.437C8.548,14.315,8.609,13.326,10.61,13.79z"/>
		<path d="M33.301,16.016c0.438,0.333,1.075,0.156,1.483-0.325c0.338-0.382,0.354-0.825,0.063-1.161
			c-0.67-0.726-1.293,0.392-1.322,0.523c-0.004,0.117-0.58-1.119,0.219-1.364c0.604-0.052,1.611-0.253,2.328-0.817
			c0.476-0.353,0.766-0.873,0.755-1.39c0.013-0.067-0.004-0.159,0.091-0.22c0.027-0.049,1.186,0.071,1.219,0.161
			c0.047,0.083-0.059,0.196-0.164,0.308c-0.289,0.176-0.769,0.779-0.932,1.196c-0.084,0.237,0.018,0.649,0.092,1.033
			c0.078,0.384,0.174,0.701,0.196,0.702c0.296,0.108,0.424-0.59,0.512-0.586c0.066-0.016,0.216,0.146,0.544,0.703
			c0.231,0.419,1.025,0.743,1.215,0.454c0.068-0.112-0.578-1.053-0.563-1.113c0.041-0.081,0.493-0.128,0.491-0.171
			c0.041-0.079-0.73-0.971-0.848-1.336c-0.127-0.402-0.141-0.604,0.025-0.77c0.18-0.184,0.627-0.012,1.062,0.345
			c0.308,0.263,0.808,0.776,0.887,1.076c0,0,0.17,0.595,0.421,1.01c0.262,0.406,0.579,0.693,1.001,0.029
			c0.824-1.346,0.642,0.905,1.184,0.74c0.551-0.127,0.537-1.14-0.475-1.921c-1.02-0.761,0.646-0.359,0.635-0.893
			c-0.037-0.561-0.673-0.94-1.354-1.063c-0.666-0.144-1.291-0.113-1.291-0.113c-0.385,0.101-0.707,0.182-1.041,0.203
			c-0.467,0.068-0.832,0.039-1.002-0.12c-0.235-0.22-0.154-0.541,0.031-0.746c0.232-0.269,1.088-0.317,1.115-0.336
			c0.471,0.119-0.327-0.472-0.316-0.543c0.039-0.111,0.133-0.15,0.26-0.162c0.154,0.017,0.789,0.248,1.01,0.243
			c0.246-0.002,0.455-0.142,0.38-0.446c-0.125-0.284-0.474-0.439-0.68-0.44c-0.183-0.001-0.634,0.109-0.837,0.176
			c-0.176,0.07-0.287,0.009-0.352-0.048c-0.115-0.117-0.033-0.758-0.054-0.84c-0.125-0.479-1.558-0.038-1.876,0.435
			c-0.449,0.672,0.391,2.289,0.334,2.326c0.012,0.033-0.898,0.063-0.969,0.016c-0.006-0.007-0.094-0.117-0.223-0.279
			c-0.132-0.159-0.314-0.366-0.52-0.554c-0.42-0.359-0.953-0.601-1.258-0.286c-0.309,0.323-0.141,0.782,0.041,1.149l0.299-0.143
			c-0.141-0.285-0.196-0.574-0.051-0.792c0.133-0.2,0.49,0.01,0.777,0.307c0.282,0.308,0.514,0.666,0.493,0.689
			c-0.008,0.003-0.153,0.039-0.394,0.098c-0.235,0.063-0.555,0.161-0.895,0.309c-0.695,0.308-1.47,0.846-1.924,1.551
			c-0.428,0.666-0.484,1.369-0.417,1.953C32.773,15.381,33.005,15.823,33.301,16.016z M36.402,11.392
			c0.06,0.046-0.397,1.015-0.922,1.313c-1.75,1.043-1.797,0.284-1.85,0.183C33.604,12.818,35.016,11.49,36.402,11.392z"/>
		<path d="M18.271,8.23c-0.022-0.008-0.562,0.057-1.083,0.248c-0.523,0.184-1.018,0.484-0.884,0.93
			c0.13,0.435,0.597,0.491,1.021,0.543l0.032-0.323c-0.324-0.033-0.609-0.137-0.726-0.37c-0.213-0.444,1.488-0.674,1.5-0.609
			c-0.002,0.009-0.042,0.156-0.107,0.398c-0.061,0.241-0.131,0.573-0.169,0.948c-0.081,0.754-0.013,1.661,0.375,2.409
			c0.359,0.694,0.961,1.132,1.5,1.362c0.272,0.117,0.531,0.174,0.763,0.186c0.239,0.032,0.445,0.01,0.603-0.071
			c0.487-0.258,0.664-0.866,0.447-1.458c-0.163-0.487-0.544-0.749-0.97-0.631c-0.958,0.232-0.316,1.287-0.208,1.398
			c0.087,0.027-1.244-0.024-1.071-0.862c0.232-0.603,0.601-1.476,0.452-2.418c-0.068-0.597-0.373-1.094-0.823-1.342
			c-0.056-0.046-0.146-0.08-0.149-0.191c-0.021-0.026,0.646-1.019,0.741-1.001c0.095-0.002,0.141,0.146,0.187,0.293
			c0.007,0.343,0.289,1.053,0.57,1.403c0.339,0.375,1.638,0.656,1.652,0.62c0.237-0.211-0.3-0.655-0.253-0.731
			c0.019-0.069,0.228-0.135,0.889-0.095c0.473-0.006,1.151-0.555,0.992-0.858c-0.062-0.118-1.194,0.017-1.239-0.039
			c-0.051-0.071,0.135-0.487,0.096-0.511c-0.025-0.028-0.329-0.008-0.674,0.009c-0.344,0.029-0.723,0.09-0.91,0.052
			c-0.407-0.071-0.593-0.185-0.654-0.407c-0.065-0.237,0.305-0.539,0.827-0.763c0.375-0.181,1.087-0.255,1.383-0.214
			c0,0,0.596,0.126,1.08,0.119c0.484,0.019,0.89-0.134,0.526-0.823c-0.75-1.379,1.102-0.126,1.232-0.684
			c0.161-0.563-0.715-0.982-1.901-0.547c-1.166,0.509,0.015-0.75-0.455-1c-0.505-0.251-1.143,0.17-1.599,0.65
			c-0.232,0.233-0.419,0.501-0.546,0.713c-0.128,0.207-0.199,0.349-0.199,0.349c-0.104,0.391-0.191,0.712-0.341,1.021
			c-0.171,0.439-0.39,0.718-0.612,0.776c-0.313,0.095-0.542-0.123-0.631-0.388c-0.056-0.169,0.006-0.448,0.087-0.69
			c0.078-0.248,0.182-0.433,0.177-0.449c0.342-0.343-0.578,0.033-0.628,0.009C18.496,5.102,18.51,5,18.56,4.882
			c0.084-0.142,0.61-0.56,0.723-0.742c0.121-0.206,0.104-0.455-0.199-0.553c-0.316-0.048-0.625,0.163-0.729,0.355
			c-0.089,0.162-0.217,0.615-0.257,0.826c-0.029,0.189-0.138,0.261-0.216,0.29c-0.16,0.058-0.681-0.354-0.763-0.379
			c-0.494-0.164-0.81,1.333-0.559,1.845c0.17,0.371,0.719,0.533,1.224,0.665c0.254,0.069,0.495,0.118,0.672,0.15
			c0.178,0.034,0.292,0.053,0.294,0.06C18.789,7.421,18.35,8.201,18.271,8.23z M19.302,10.332c0.021,1.999-0.626,1.742-0.757,1.7
			c-0.031-0.001-0.162-0.472-0.212-1.104c-0.046-0.621-0.018-1.457,0.29-2.055C18.692,8.849,19.313,9.74,19.302,10.332z"/>
		<path d="M26.688,9.286c0.479-0.048,0.951-0.092,0.97-0.104c0.086,0.013,0.567,0.679,0.526,0.704
			c-0.023,0.033-1.438,0.608-1.486,1.436c-0.032,0.547,0.33,1.849,0.574,1.575c0.043-0.045,0.336-0.574,0.442-0.559
			c0.05,0.008,0.124,0.05,0.142,0.225c0.033,0.186,0.103,0.593,0.143,0.736c0.055,0.158,0.209,0.327,0.391,0.247
			c0.182-0.13,0.223-0.373,0.166-0.562c-0.043-0.171-0.346-0.522-0.404-0.633c-0.032-0.104-0.041-0.202,0.008-0.301
			c0.04-0.052,0.629,0.216,0.418-0.081c0.012-0.028-0.242-0.731-0.176-1.081c0.056-0.271,0.23-0.528,0.482-0.463
			c0.176,0.045,0.346,0.312,0.44,0.733c0.084,0.292,0.11,0.602,0.126,0.969c0,0,0.031,0.134,0.078,0.333
			c0.048,0.201,0.115,0.463,0.197,0.708c0.162,0.504,0.391,0.886,0.748,0.734c0.373-0.159,0.082-1.532,0.623-0.854
			c0.268,0.34,0.57,0.45,0.829,0.439c0.252-0.001,0.479-0.156,0.574-0.424c0.192-0.579-1.556,0.079-0.492-0.978
			c1.093-1.034-0.95-1.075-0.95-1.017c-0.25,0.008-0.77-0.183-1.048-0.351c-0.391-0.208-0.687-0.481-0.625-0.724
			c0.058-0.224,0.218-0.34,0.595-0.419c0.35-0.104,1.363,0.282,1.42,0.224c0.043-0.016-0.037-0.456,0.02-0.518
			c0.025-0.023,0.305,0.055,0.589,0.127c0.283,0.075,0.558,0.184,0.61,0.133c0.266-0.233-0.251-0.988-0.774-1.089
			c-0.696-0.125-0.907-0.2-0.924-0.272c-0.051-0.083,0.591-0.446,0.343-0.694c-0.025-0.083-1.529,0.15-1.816,0.536
			c-0.268,0.36-0.478,1.103-0.469,1.438c-0.033,0.15-0.068,0.301-0.152,0.311c-0.057,0.007-0.747-0.808-0.752-0.84
			c-0.018-0.112,0.058-0.163,0.103-0.22c0.374-0.33,0.628-0.868,0.595-1.467c0.002-0.934-0.727-1.801-1.353-2.304
			c-0.349-0.355-0.062-0.689,0.325-0.865c0.384-0.178,0.859-0.242,0.811-0.202C28.423,3.998,28,5.156,29.367,5.268
			c0.613,0.081,1.107-0.126,1.277-0.613c0.24-0.573-0.187-1.314-1.193-1.542c-0.631-0.137-1.518-0.075-2.221,0.331
			c-0.709,0.397-1.211,1.024-1.213,1.811c0,0.842,0.409,1.715,0.758,2.379c0.375,0.659,0.66,1.16,0.666,1.173
			c-0.004,0.035-0.381,0.104-0.75,0.178c-0.368,0.059-0.728,0.048-0.726-0.199c0.002-0.262,0.2-0.468,0.483-0.623l-0.157-0.287
			c-0.375,0.198-0.739,0.482-0.653,0.926C25.726,9.237,26.209,9.316,26.688,9.286z M26.619,5.483c0.076-0.076,0.971-0.6,1.561,1.422
			c0.16,0.587-0.279,1.579-0.338,1.57C27.04,7.389,26.538,5.528,26.619,5.483z"/>
		<path d="M41.512,17.758c-0.203,0.322-0.365,0.611-0.479,0.819c-0.113,0.207-0.186,0.338-0.186,0.338
			c-0.062,0.012-1.156-1.052-0.723-1.288c0.229-0.13,0.501-0.06,0.771,0.11l0.172-0.282c-0.34-0.234-0.793-0.393-1.129-0.097
			c-0.66,0.563,0.697,1.868,0.688,1.933c0.031,0.082-0.317,0.838-0.358,0.813c-0.008,0.003-0.088-0.059-0.218-0.143
			c-0.129-0.085-0.305-0.194-0.501-0.289c-0.395-0.191-0.917-0.295-1.273-0.127c-0.508,0.255-1.387,1.194-1.059,1.279
			c0.059,0.014,0.658,0.006,0.694,0.104c0.019,0.049,0.017,0.135-0.127,0.239c-0.151,0.122-0.466,0.385-0.556,0.489
			c-0.094,0.121-0.168,0.341-0.015,0.459c0.199,0.094,0.431,0.008,0.569-0.137c0.132-0.126,0.29-0.563,0.335-0.665
			c0.069-0.078,0.147-0.133,0.259-0.142c0.085,0.001,0.15,0.645,0.299,0.314c0.043-0.008,0.496-0.571,0.828-0.688
			c0.26-0.088,0.59-0.071,0.663,0.179c0.044,0.175-0.106,0.457-0.428,0.752c-0.214,0.221-0.472,0.4-0.784,0.599
			c0,0-0.098,0.093-0.24,0.232c-0.138,0.143-0.32,0.332-0.502,0.523c-0.352,0.394-0.619,0.791-0.261,1.02
			c0.344,0.24,1.33-0.697,1.058,0.109c-0.34,0.794,0.143,1.316,0.692,1.226c0.548-0.124-0.851-1.311,0.583-0.92
			c0.717,0.209,0.835-0.124,0.773-0.521c-0.082-0.394-0.379-0.813-0.379-0.813c-0.138-0.208-0.181-0.767-0.225-1.081
			c-0.02-0.441,0.087-0.838,0.325-0.905c0.222-0.063,0.399,0.017,0.651,0.306c0.106,0.131,0.258,0.452,0.344,0.754
			c0.08,0.302,0.146,0.574,0.179,0.586c0.035,0.029,0.38-0.264,0.46-0.245c0.064,0.021,0.27,1.125,0.391,1.167
			c0.354,0.11,0.678-0.707,0.539-1.216c-0.218-0.668-0.275-0.886-0.229-0.934c0.041-0.088,0.71,0.28,0.779-0.055
			c0.021-0.053-0.89-1.249-1.369-1.305c-0.439-0.051-1.202,0.146-1.479,0.316c-0.147,0.047-0.295,0.093-0.353,0.027
			c-0.062-0.035,0.322-1.052,0.347-1.072c0.089-0.07,0.168-0.031,0.24-0.021c0.466,0.16,1.056,0.112,1.56-0.218
			c0.797-0.464,1.246-1.556,1.307-2.324c0.287-1.004,1.662,0.448,1.514,0.438c-0.17-0.053-1.379,0.16-0.812,1.41
			c0.271,0.563,0.683,0.887,1.187,0.791c0.628-0.083,1.041-0.816,0.726-1.803c-0.17-0.628-0.697-1.35-1.404-1.757
			c-0.689-0.42-1.476-0.546-2.155-0.151C42.477,16.317,41.919,17.118,41.512,17.758z M43.646,17.01
			c0.058,0.32-0.051,0.839-0.791,1.592c-0.434,0.433-1.506,0.554-1.526,0.495c0.505-1.224,1.892-2.611,1.967-2.56
			C43.352,16.563,43.587,16.688,43.646,17.01z"/>
		<path d="M25.517,0C11.447,0,0,11.446,0,25.517c0,14.07,11.447,25.518,25.517,25.518c14.071,0,25.518-11.447,25.518-25.518
			C51.035,11.446,39.587,0,25.517,0z M25.517,49.034C12.549,49.034,2,38.483,2,25.517C2,12.549,12.549,2,25.517,2
			c12.967,0,23.518,10.549,23.518,23.516C49.035,38.483,38.484,49.034,25.517,49.034z"/>
		<path d="M14.562,25.518c0,6.051,4.905,10.956,10.956,10.956c6.05,0,10.957-4.904,10.957-10.956c0-6.05-4.906-10.955-10.957-10.955
			C19.466,14.562,14.562,19.467,14.562,25.518z M25.529,18.154c1.931,0,3.497,1.567,3.497,3.497c0,1.315-0.726,2.461-1.797,3.059
			c1.996,7.688,1.996,7.688,1.996,7.688s-6.815,0-7.079,0c2.075-7.502,0,0,2.075-7.502c-1.283-0.519-2.188-1.775-2.188-3.245
			C22.032,19.723,23.597,18.154,25.529,18.154z"/>
	</g>
	<g>
	</g>
	<g>
	</g>
	<g>
	</g>
	<g>
	</g>
	<g>
	</g>
	<g>
	</g>
	<g>
	</g>
	<g>
	</g>
	<g>
	</g>
	<g>
	</g>
	<g>
	</g>
	<g>
	</g>
	<g>
	</g>
	<g>
	</g>
	<g>
	</g>
</g>
<g>
</g>
<g>
</g>
<g>
</g>
<g>
</g>
<g>
</g>
<g>
</g>
<g>
</g>
<g>
</g>
<g>
</g>
<g>
</g>
<g>
</g>
<g>
</g>
<g>
</g>
<g>
</g>
<g>
</g>
</svg>
